<svg width="400" height="200" xmlns="http://www.w3.org/2000/svg">
  <rect width="100%" height="100%" fill="#1e293b"/>
  
  <!-- Shield shape -->
  <path d="M200 40 C180 40, 160 50, 160 70 L160 110 C160 140, 180 160, 200 160 C220 160, 240 140, 240 110 L240 70 C240 50, 220 40, 200 40 Z" fill="#374151" stroke="#10b981" stroke-width="2"/>
  
  <!-- Security lock icon -->
  <rect x="190" y="90" width="20" height="25" fill="#10b981" rx="3"/>
  <path d="M185 90 C185 85, 190 80, 200 80 C210 80, 215 85, 215 90" stroke="#10b981" stroke-width="3" fill="none"/>
  
  <!-- Checkmark -->
  <circle cx="200" cy="105" r="8" fill="#10b981" opacity="0.3"/>
  <path d="M196 105 l2 2 l6 -6" stroke="white" stroke-width="2" fill="none"/>
  
  <!-- Data protection bars -->
  <rect x="170" y="125" width="15" height="4" fill="#10b981" rx="2" opacity="0.8"/>
  <rect x="190" y="125" width="20" height="4" fill="#10b981" rx="2" opacity="0.8"/>
  <rect x="215" y="125" width="15" height="4" fill="#10b981" rx="2" opacity="0.8"/>
  
  <rect x="170" y="135" width="25" height="4" fill="#10b981" rx="2" opacity="0.6"/>
  <rect x="200" y="135" width="30" height="4" fill="#10b981" rx="2" opacity="0.6"/>
  
  <!-- Side security elements -->
  <circle cx="120" cy="100" r="6" fill="#10b981" opacity="0.4"/>
  <circle cx="280" cy="100" r="6" fill="#10b981" opacity="0.4"/>
  <rect x="115" y="110" width="10" height="2" fill="#10b981" rx="1" opacity="0.4"/>
  <rect x="275" y="110" width="10" height="2" fill="#10b981" rx="1" opacity="0.4"/>
  
  <text x="200" y="185" font-family="Arial, sans-serif" font-size="16" fill="white" text-anchor="middle">Sécurisé &amp; Conforme RGPD</text>
</svg>